<svg xmlns="http://www.w3.org/2000/svg" viewBox="0 0 512 512" width="512" height="512" role="img" aria-label="NEXO"><rect width="512" height="512" rx="116" fill="#FFC21A"></rect><path fill="#121212" d="M384 166.1 L384 165.5 L383.9 164.8 L383.7 164.2 L383.5 163.6 L383.2 163.1 L382.9 162.5 L382.5 162 L382.1 161.6 L381.7 161.1 L381.2 160.8 L380.6 160.4 L380 160.2 L379.5 160 L378.8 159.8 L378.2 159.7 L377.6 159.7 L377 159.7 L376.4 159.8 L375.7 160 L375.2 160.2 L374.6 160.4 L374 160.8 L373.5 161.1 L373.1 161.6 L283.2 251.5 L282.7 251.9 L282.4 252.4 L282 253 L281.8 253.6 L281.6 254.1 L281.4 254.8 L281.3 255.4 L281.3 256 L281.3 256.6 L281.4 257.2 L281.6 257.9 L281.8 258.4 L282 259 L282.4 259.6 L282.7 260.1 L283.2 260.5 L373.1 350.4 L373.5 350.9 L374 351.2 L374.6 351.6 L375.2 351.8 L375.7 352 L376.4 352.2 L377 352.3 L377.6 352.3 L378.2 352.3 L378.8 352.2 L379.5 352 L380 351.8 L380.6 351.6 L381.2 351.2 L381.7 350.9 L382.1 350.4 L382.5 350 L382.9 349.5 L383.2 348.9 L383.5 348.4 L383.7 347.8 L383.9 347.2 L384 346.5 L384 345.9ZM166.1 128 L165.5 128 L164.8 128.1 L164.2 128.3 L163.6 128.5 L163.1 128.8 L162.5 129.1 L162 129.5 L161.6 129.9 L161.1 130.3 L160.8 130.8 L160.4 131.4 L160.2 132 L160 132.5 L159.8 133.2 L159.7 133.8 L159.7 134.4 L159.7 135 L159.8 135.6 L160 136.3 L160.2 136.8 L160.4 137.4 L160.8 138 L161.1 138.5 L161.6 138.9 L251.5 228.8 L251.9 229.3 L252.4 229.6 L253 230 L253.6 230.2 L254.1 230.4 L254.8 230.6 L255.4 230.7 L256 230.7 L256.6 230.7 L257.2 230.6 L257.9 230.4 L258.4 230.2 L259 230 L259.6 229.6 L260.1 229.3 L260.5 228.8 L350.4 138.9 L350.9 138.5 L351.2 138 L351.6 137.4 L351.8 136.8 L352 136.3 L352.2 135.6 L352.3 135 L352.3 134.4 L352.3 133.8 L352.2 133.2 L352 132.5 L351.8 132 L351.6 131.4 L351.2 130.8 L350.9 130.3 L350.4 129.9 L350 129.5 L349.5 129.1 L348.9 128.8 L348.4 128.5 L347.8 128.3 L347.2 128.1 L346.5 128 L345.9 128ZM345.9 384 L346.5 384 L347.2 383.9 L347.8 383.7 L348.4 383.5 L348.9 383.2 L349.5 382.9 L350 382.5 L350.4 382.1 L350.9 381.7 L351.2 381.2 L351.6 380.6 L351.8 380 L352 379.5 L352.2 378.8 L352.3 378.2 L352.3 377.6 L352.3 377 L352.2 376.4 L352 375.7 L351.8 375.2 L351.6 374.6 L351.2 374 L350.9 373.5 L350.4 373.1 L260.5 283.2 L260.1 282.7 L259.6 282.4 L259 282 L258.4 281.8 L257.9 281.6 L257.2 281.4 L256.6 281.3 L256 281.3 L255.4 281.3 L254.8 281.4 L254.1 281.6 L253.6 281.8 L253 282 L252.4 282.4 L251.9 282.7 L251.5 283.2 L161.6 373.1 L161.1 373.5 L160.8 374 L160.4 374.6 L160.2 375.2 L160 375.7 L159.8 376.4 L159.7 377 L159.7 377.6 L159.7 378.2 L159.8 378.8 L160 379.5 L160.2 380 L160.4 380.6 L160.8 381.2 L161.1 381.7 L161.6 382.1 L162 382.5 L162.5 382.9 L163.1 383.2 L163.6 383.5 L164.2 383.7 L164.8 383.9 L165.5 384 L166.1 384ZM128 345.9 L128 346.5 L128.1 347.2 L128.3 347.8 L128.5 348.4 L128.8 348.9 L129.1 349.5 L129.5 350 L129.9 350.4 L130.3 350.9 L130.8 351.2 L131.4 351.6 L132 351.8 L132.5 352 L133.2 352.2 L133.8 352.3 L134.4 352.3 L135 352.3 L135.6 352.2 L136.3 352 L136.8 351.8 L137.4 351.6 L138 351.2 L138.5 350.9 L138.9 350.4 L228.8 260.5 L229.3 260.1 L229.6 259.6 L230 259 L230.2 258.4 L230.4 257.9 L230.6 257.2 L230.7 256.6 L230.7 256 L230.7 255.4 L230.6 254.8 L230.4 254.1 L230.2 253.6 L230 253 L229.6 252.4 L229.3 251.9 L228.8 251.5 L138.9 161.6 L138.5 161.1 L138 160.8 L137.4 160.4 L136.8 160.2 L136.3 160 L135.6 159.8 L135 159.7 L134.4 159.7 L133.8 159.7 L133.2 159.8 L132.5 160 L132 160.2 L131.4 160.4 L130.8 160.8 L130.3 161.1 L129.9 161.6 L129.5 162 L129.1 162.5 L128.8 163.1 L128.5 163.6 L128.3 164.2 L128.1 164.8 L128 165.5 L128 166.1Z"></path></svg>